<svg width="563" height="110" viewBox="0 0 563 110" fill="none" xmlns="http://www.w3.org/2000/svg">
<path d="M52.692 109.1C35.792 109.1 22.892 104.4 13.992 95C5.19199 85.6 0.791992 72.25 0.791992 54.95C0.791992 46.35 2.14199 38.7 4.84199 32C7.54199 25.2 11.242 19.5 15.942 14.9C20.642 10.2 26.242 6.65 32.742 4.24999C39.242 1.84999 46.292 0.649992 53.892 0.649992C58.292 0.649992 62.292 0.999994 65.892 1.7C69.492 2.29999 72.642 3.04999 75.342 3.94999C78.042 4.75 80.292 5.6 82.092 6.5C83.892 7.4 85.192 8.1 85.992 8.6L79.242 27.5C76.042 25.8 72.292 24.35 67.992 23.15C63.792 21.95 58.992 21.35 53.592 21.35C49.992 21.35 46.442 21.95 42.942 23.15C39.542 24.35 36.492 26.3 33.792 29C31.192 31.6 29.092 35 27.492 39.2C25.892 43.4 25.092 48.5 25.092 54.5C25.092 59.3 25.592 63.8 26.592 68C27.692 72.1 29.392 75.65 31.692 78.65C34.092 81.65 37.192 84.05 40.992 85.85C44.792 87.55 49.392 88.4 54.792 88.4C58.192 88.4 61.242 88.2 63.942 87.8C66.642 87.4 69.042 86.95 71.142 86.45C73.242 85.85 75.092 85.2 76.692 84.5C78.292 83.8 79.742 83.15 81.042 82.55L87.492 101.3C84.192 103.3 79.542 105.1 73.542 106.7C67.542 108.3 60.592 109.1 52.692 109.1ZM173.1 67.4C173.1 73.6 172.2 79.3 170.4 84.5C168.6 89.6 166 94 162.6 97.7C159.2 101.3 155.1 104.1 150.3 106.1C145.6 108.1 140.3 109.1 134.4 109.1C128.6 109.1 123.3 108.1 118.5 106.1C113.8 104.1 109.75 101.3 106.35 97.7C102.95 94 100.3 89.6 98.3998 84.5C96.4998 79.3 95.5498 73.6 95.5498 67.4C95.5498 61.2 96.4998 55.55 98.3998 50.45C100.4 45.35 103.1 41 106.5 37.4C110 33.8 114.1 31 118.8 29C123.6 27 128.8 26 134.4 26C140.1 26 145.3 27 150 29C154.8 31 158.9 33.8 162.3 37.4C165.7 41 168.35 45.35 170.25 50.45C172.15 55.55 173.1 61.2 173.1 67.4ZM150.3 67.4C150.3 60.5 148.9 55.1 146.1 51.2C143.4 47.2 139.5 45.2 134.4 45.2C129.3 45.2 125.35 47.2 122.55 51.2C119.75 55.1 118.35 60.5 118.35 67.4C118.35 74.3 119.75 79.8 122.55 83.9C125.35 87.9 129.3 89.9 134.4 89.9C139.5 89.9 143.4 87.9 146.1 83.9C148.9 79.8 150.3 74.3 150.3 67.4ZM190.413 30.8C194.213 29.7 199.113 28.7 205.113 27.8C211.113 26.8 217.413 26.3 224.013 26.3C230.713 26.3 236.263 27.2 240.663 29C245.163 30.7 248.713 33.15 251.313 36.35C253.913 39.55 255.763 43.35 256.863 47.75C257.963 52.15 258.513 57.05 258.513 62.45V107H236.163V65.15C236.163 57.95 235.213 52.85 233.313 49.85C231.413 46.85 227.863 45.35 222.663 45.35C221.063 45.35 219.363 45.45 217.563 45.65C215.763 45.75 214.163 45.9 212.763 46.1V107H190.413V30.8ZM277.993 8.45L300.343 4.84999V28.1H327.193V46.7H300.343V74.45C300.343 79.15 301.143 82.9 302.743 85.7C304.443 88.5 307.793 89.9 312.793 89.9C315.193 89.9 317.643 89.7 320.143 89.3C322.743 88.8 325.093 88.15 327.193 87.35L330.343 104.75C327.643 105.85 324.643 106.8 321.343 107.6C318.043 108.4 313.993 108.8 309.193 108.8C303.093 108.8 298.043 108 294.043 106.4C290.043 104.7 286.843 102.4 284.443 99.5C282.043 96.5 280.343 92.9 279.343 88.7C278.443 84.5 277.993 79.85 277.993 74.75V8.45ZM372.614 91.4C374.814 91.4 376.914 91.35 378.914 91.25C380.914 91.15 382.514 91 383.714 90.8V73.85C382.814 73.65 381.464 73.45 379.664 73.25C377.864 73.05 376.214 72.95 374.714 72.95C372.614 72.95 370.614 73.1 368.714 73.4C366.914 73.6 365.314 74.05 363.914 74.75C362.514 75.45 361.414 76.4 360.614 77.6C359.814 78.8 359.414 80.3 359.414 82.1C359.414 85.6 360.564 88.05 362.864 89.45C365.264 90.75 368.514 91.4 372.614 91.4ZM370.814 26C377.414 26 382.914 26.75 387.314 28.25C391.714 29.75 395.214 31.9 397.814 34.7C400.514 37.5 402.414 40.9 403.514 44.9C404.614 48.9 405.164 53.35 405.164 58.25V104.75C401.964 105.45 397.514 106.25 391.814 107.15C386.114 108.15 379.214 108.65 371.114 108.65C366.014 108.65 361.364 108.2 357.164 107.3C353.064 106.4 349.514 104.95 346.514 102.95C343.514 100.85 341.214 98.15 339.614 94.85C338.014 91.55 337.214 87.5 337.214 82.7C337.214 78.1 338.114 74.2 339.914 71C341.814 67.8 344.314 65.25 347.414 63.35C350.514 61.45 354.064 60.1 358.064 59.3C362.064 58.4 366.214 57.95 370.514 57.95C373.414 57.95 375.964 58.1 378.164 58.4C380.464 58.6 382.314 58.9 383.714 59.3V57.2C383.714 53.4 382.564 50.35 380.264 48.05C377.964 45.75 373.964 44.6 368.264 44.6C364.464 44.6 360.714 44.9 357.014 45.5C353.314 46 350.114 46.75 347.414 47.75L344.564 29.75C345.864 29.35 347.464 28.95 349.364 28.55C351.364 28.05 353.514 27.65 355.814 27.35C358.114 26.95 360.514 26.65 363.014 26.45C365.614 26.15 368.214 26 370.814 26ZM424.624 8.45L446.974 4.84999V28.1H473.824V46.7H446.974V74.45C446.974 79.15 447.774 82.9 449.374 85.7C451.074 88.5 454.424 89.9 459.424 89.9C461.824 89.9 464.274 89.7 466.774 89.3C469.374 88.8 471.724 88.15 473.824 87.35L476.974 104.75C474.274 105.85 471.274 106.8 467.974 107.6C464.674 108.4 460.624 108.8 455.824 108.8C449.724 108.8 444.674 108 440.674 106.4C436.674 104.7 433.474 102.4 431.074 99.5C428.674 96.5 426.974 92.9 425.974 88.7C425.074 84.5 424.624 79.85 424.624 74.75V8.45ZM562.895 67.4C562.895 73.6 561.995 79.3 560.195 84.5C558.395 89.6 555.795 94 552.395 97.7C548.995 101.3 544.895 104.1 540.095 106.1C535.395 108.1 530.095 109.1 524.195 109.1C518.395 109.1 513.095 108.1 508.295 106.1C503.595 104.1 499.545 101.3 496.145 97.7C492.745 94 490.095 89.6 488.195 84.5C486.295 79.3 485.345 73.6 485.345 67.4C485.345 61.2 486.295 55.55 488.195 50.45C490.195 45.35 492.895 41 496.295 37.4C499.795 33.8 503.895 31 508.595 29C513.395 27 518.595 26 524.195 26C529.895 26 535.095 27 539.795 29C544.595 31 548.695 33.8 552.095 37.4C555.495 41 558.145 45.35 560.045 50.45C561.945 55.55 562.895 61.2 562.895 67.4ZM540.095 67.4C540.095 60.5 538.695 55.1 535.895 51.2C533.195 47.2 529.295 45.2 524.195 45.2C519.095 45.2 515.145 47.2 512.345 51.2C509.545 55.1 508.145 60.5 508.145 67.4C508.145 74.3 509.545 79.8 512.345 83.9C515.145 87.9 519.095 89.9 524.195 89.9C529.295 89.9 533.195 87.9 535.895 83.9C538.695 79.8 540.095 74.3 540.095 67.4Z" fill="url(#paint0_linear_7_2307)" fill-opacity="0.1"/>
<defs>
<linearGradient id="paint0_linear_7_2307" x1="281.5" y1="-35" x2="281.5" y2="129.5" gradientUnits="userSpaceOnUse">
<stop stop-color="#1D1D1D"/>
<stop offset="0.559081" stop-color="#1D1D1D" stop-opacity="0"/>
<stop offset="1" stop-color="#1D1D1D"/>
</linearGradient>
</defs>
</svg>
