<svg width="22" height="22" viewBox="0 0 22 22" fill="none" xmlns="http://www.w3.org/2000/svg">
<g id="Icon">
<path id="Vector" d="M7.34766 0.730469C8.26432 0.730469 9.1237 0.902344 9.92578 1.24609C10.7279 1.58984 11.4297 2.0625 12.0312 2.66406C12.6042 3.26562 13.0697 3.96745 13.4277 4.76953C13.7858 5.57162 13.9648 6.43099 13.9648 7.34766C13.9648 7.63411 13.9434 7.92057 13.9004 8.20703C13.8574 8.49349 13.793 8.76562 13.707 9.02344C13.6497 9.3099 13.5638 9.58919 13.4492 9.86133C13.3346 10.1335 13.2057 10.3841 13.0625 10.6133L7.34766 20.5391L1.63281 10.6133C1.48958 10.3841 1.36068 10.1335 1.24609 9.86133C1.13151 9.58919 1.04557 9.3099 0.988281 9.02344C0.902344 8.76562 0.837891 8.49349 0.794922 8.20703C0.751953 7.92057 0.730469 7.63411 0.730469 7.34766C0.730469 6.43099 0.909505 5.57162 1.26758 4.76953C1.62565 3.96745 2.09115 3.26562 2.66406 2.66406C3.26562 2.0625 3.96745 1.58984 4.76953 1.24609C5.57161 0.902344 6.43099 0.730469 7.34766 0.730469ZM7.34766 9.88281C7.69141 9.88281 8.02083 9.81836 8.33594 9.68945C8.65104 9.56055 8.92318 9.38151 9.15234 9.15234C9.38151 8.92318 9.56771 8.65104 9.71094 8.33594C9.85417 8.02083 9.92578 7.69141 9.92578 7.34766C9.92578 6.97526 9.85417 6.63867 9.71094 6.33789C9.56771 6.03711 9.38151 5.77213 9.15234 5.54297C8.92318 5.28516 8.65104 5.0918 8.33594 4.96289C8.02083 4.83398 7.69141 4.76953 7.34766 4.76953C7.00391 4.76953 6.67448 4.83398 6.35938 4.96289C6.04427 5.0918 5.77214 5.28516 5.54297 5.54297C5.3138 5.77213 5.1276 6.03711 4.98438 6.33789C4.84115 6.63867 4.76953 6.97526 4.76953 7.34766C4.76953 7.69141 4.84115 8.02083 4.98438 8.33594C5.1276 8.65104 5.3138 8.92318 5.54297 9.15234C5.77214 9.38151 6.04427 9.56055 6.35938 9.68945C6.67448 9.81836 7.00391 9.88281 7.34766 9.88281ZM7.34766 0C6.34505 0 5.39974 0.193359 4.51172 0.580078C3.6237 0.966797 2.83594 1.48958 2.14844 2.14844C1.48958 2.80729 0.966797 3.58073 0.580078 4.46875C0.193359 5.35677 0 6.31641 0 7.34766C0 7.66276 0.0214844 7.98503 0.0644531 8.31445C0.107422 8.64388 0.171875 8.96615 0.257812 9.28125C0.34375 9.56771 0.451172 9.86133 0.580078 10.1621C0.708984 10.4629 0.845052 10.7422 0.988281 11L7.34766 22L13.707 11C13.8503 10.7422 13.9863 10.4629 14.1152 10.1621C14.2441 9.86133 14.3516 9.56771 14.4375 9.28125C14.5234 8.96615 14.5879 8.64388 14.6309 8.31445C14.6738 7.98503 14.6953 7.66276 14.6953 7.34766C14.6953 6.31641 14.502 5.35677 14.1152 4.46875C13.7285 3.58073 13.2057 2.80729 12.5469 2.14844C11.8594 1.48958 11.0716 0.966797 10.1836 0.580078C9.29557 0.193359 8.35026 0 7.34766 0ZM7.34766 9.15234C7.08984 9.15234 6.85352 9.10938 6.63867 9.02344C6.42383 8.9375 6.23047 8.80859 6.05859 8.63672C5.88672 8.46484 5.75065 8.27148 5.65039 8.05664C5.55013 7.8418 5.5 7.60547 5.5 7.34766C5.5 7.08984 5.55013 6.84635 5.65039 6.61719C5.75065 6.38802 5.88672 6.20182 6.05859 6.05859C6.23047 5.88672 6.42383 5.75065 6.63867 5.65039C6.85352 5.55013 7.08984 5.5 7.34766 5.5C7.60547 5.5 7.8418 5.55013 8.05664 5.65039C8.27148 5.75065 8.46484 5.88672 8.63672 6.05859C8.80859 6.20182 8.94466 6.38802 9.04492 6.61719C9.14518 6.84635 9.19531 7.08984 9.19531 7.34766C9.19531 7.60547 9.14518 7.8418 9.04492 8.05664C8.94466 8.27148 8.80859 8.46484 8.63672 8.63672C8.46484 8.80859 8.27148 8.9375 8.05664 9.02344C7.8418 9.10938 7.60547 9.15234 7.34766 9.15234Z" fill="#0C056D"/>
</g>
</svg>
