<svg width="19" height="22" viewBox="0 0 19 22" fill="none" xmlns="http://www.w3.org/2000/svg">
<g id="Icon" clip-path="url(#clip0_7_867)">
<path id="Vector" d="M18.3538 9.88281C18.3538 8.6224 18.1103 7.44075 17.6234 6.33789C17.1364 5.23503 16.4775 4.26823 15.6468 3.4375C14.8161 2.60677 13.8421 1.94792 12.7249 1.46094C11.6077 0.973959 10.4189 0.730469 9.15851 0.730469C7.89809 0.730469 6.70929 0.973959 5.5921 1.46094C4.47491 1.94792 3.51528 2.60677 2.7132 3.4375C1.88247 4.26823 1.22361 5.23503 0.736633 6.33789C0.249654 7.44075 0.00616455 8.6224 0.00616455 9.88281V13.6211H0.0491333C0.0491333 13.6784 0.0491333 13.7357 0.0491333 13.793C0.0491333 13.8503 0.0491333 13.8932 0.0491333 13.9219C0.0491333 14.5234 0.163717 15.0964 0.392883 15.6406C0.62205 16.1849 0.937154 16.6576 1.3382 17.0586C1.71059 17.4596 2.16176 17.7747 2.69171 18.0039C3.22166 18.2331 3.78741 18.3477 4.38898 18.3477V9.53906C3.98794 9.53906 3.60838 9.58203 3.25031 9.66797C2.89223 9.75391 2.56997 9.88281 2.28351 10.0547C1.9684 10.2266 1.68195 10.4342 1.42413 10.6777C1.16632 10.9212 0.937154 11.2005 0.736633 11.5156V9.88281C0.736633 8.73698 0.958639 7.64844 1.40265 6.61719C1.84666 5.58594 2.45538 4.69792 3.22882 3.95312C3.97361 3.17969 4.86163 2.57096 5.89288 2.12695C6.92413 1.68294 8.01268 1.46094 9.15851 1.46094C10.333 1.46094 11.4287 1.68294 12.4456 2.12695C13.4625 2.57096 14.3577 3.17969 15.1312 3.95312C15.9046 4.69792 16.5133 5.58594 16.9573 6.61719C17.4013 7.64844 17.6234 8.73698 17.6234 9.88281V11.5156C17.4228 11.2292 17.1937 10.9642 16.9359 10.7207C16.678 10.4772 16.3916 10.2695 16.0765 10.0977C15.7614 9.92578 15.4248 9.78971 15.0667 9.68945C14.7086 9.58919 14.3434 9.53906 13.971 9.53906H13.928V18.3477H13.971C14.1715 18.3477 14.3506 18.3333 14.5081 18.3047C14.6657 18.276 14.8447 18.2331 15.0452 18.1758C14.7588 18.4622 14.4651 18.7129 14.1644 18.9277C13.8636 19.1426 13.5413 19.3503 13.1976 19.5508C12.8825 19.7227 12.5387 19.873 12.1663 20.002C11.7939 20.1309 11.4215 20.2526 11.0491 20.3672V19.0781H7.35382V21.2695H11.0062V21.1406C11.5791 20.9974 12.1377 20.8184 12.6819 20.6035C13.2262 20.3887 13.7418 20.1094 14.2288 19.7656C14.7158 19.4505 15.167 19.0924 15.5823 18.6914C15.9977 18.2904 16.3629 17.8464 16.678 17.3594C16.9359 17.1589 17.165 16.9368 17.3655 16.6934C17.5661 16.4499 17.7379 16.1706 17.8812 15.8555C18.0244 15.569 18.139 15.2611 18.2249 14.9316C18.3109 14.6022 18.3538 14.2656 18.3538 13.9219C18.3538 13.8646 18.3538 13.8145 18.3538 13.7715C18.3538 13.7285 18.3538 13.6784 18.3538 13.6211V9.88281ZM3.65851 10.3555V17.5312C3.25747 17.4453 2.87791 17.2949 2.51984 17.0801C2.16176 16.8652 1.85382 16.6003 1.59601 16.2852C1.3382 15.9414 1.13051 15.5762 0.972961 15.1895C0.815409 14.8027 0.736633 14.3802 0.736633 13.9219C0.736633 13.4922 0.815409 13.0768 0.972961 12.6758C1.13051 12.2747 1.3382 11.9167 1.59601 11.6016C1.85382 11.2865 2.16176 11.0215 2.51984 10.8066C2.87791 10.5918 3.25747 10.4414 3.65851 10.3555ZM10.2757 20.5391H8.08429V19.8086H10.2757V20.5391ZM14.6585 17.5312V10.3555C15.0882 10.4414 15.4821 10.5918 15.8401 10.8066C16.1982 11.0215 16.5062 11.2865 16.764 11.6016C17.0218 11.9167 17.2295 12.2747 17.387 12.6758C17.5446 13.0768 17.6234 13.4922 17.6234 13.9219C17.6234 14.3802 17.5446 14.8027 17.387 15.1895C17.2295 15.5762 17.0218 15.9414 16.764 16.2852C16.5062 16.6003 16.1982 16.8652 15.8401 17.0801C15.4821 17.2949 15.0882 17.4453 14.6585 17.5312Z" fill="#0C056D"/>
</g>
<defs>
<clipPath id="clip0_7_867">
<rect width="18.36" height="22" fill="white" transform="matrix(1 0 0 -1 0 22)"/>
</clipPath>
</defs>
</svg>
