<svg width="16" height="18" viewBox="0 0 16 18" fill="none" xmlns="http://www.w3.org/2000/svg">
<g id="Icon" clip-path="url(#clip0_7_889)">
<path id="Vector" d="M13.5922 14.0492V7.66498H12.2622C12.3936 8.07877 12.4592 8.50899 12.4592 8.95562C12.4592 9.78321 12.2491 10.5468 11.8287 11.2463C11.4083 11.9458 10.8369 12.4991 10.1144 12.9064C9.39191 13.3136 8.60374 13.5172 7.74988 13.5172C6.45595 13.5172 5.34922 13.0722 4.42968 12.1822C3.51014 11.2922 3.05037 10.2167 3.05037 8.95562C3.05037 8.50899 3.11605 8.07877 3.24741 7.66498H1.85825V14.0492C1.85825 14.22 1.91572 14.3628 2.03067 14.4778C2.14561 14.5927 2.28847 14.6502 2.45924 14.6502H12.9913C13.1555 14.6502 13.2967 14.5927 13.4149 14.4778C13.5331 14.3628 13.5922 14.22 13.5922 14.0492ZM9.90259 10.8817C9.90259 10.8817 10.0512 10.738 10.3484 10.4507C10.6456 10.1633 10.7942 9.61243 10.7942 8.79798C10.7942 7.98353 10.497 7.28895 9.90259 6.71424C9.30817 6.13953 8.5906 5.85217 7.74988 5.85217C6.91572 5.85217 6.20144 6.13953 5.60702 6.71424C5.0126 7.28895 4.71539 7.98353 4.71539 8.79798C4.71539 9.61243 5.0126 10.307 5.60702 10.8817C6.20144 11.4564 6.91572 11.7438 7.74988 11.7438C8.5906 11.7438 9.30817 11.4564 9.90259 10.8817ZM13.5922 5.25119V3.62557C13.5922 3.44166 13.5266 3.28238 13.3952 3.14774C13.2638 3.01309 13.1029 2.94577 12.9124 2.94577H11.1982C11.0077 2.94577 10.8468 3.01309 10.7154 3.14774C10.584 3.28238 10.5184 3.44166 10.5184 3.62557V5.25119C10.5184 5.44166 10.584 5.60258 10.7154 5.73394C10.8468 5.86531 11.0077 5.93099 11.1982 5.93099H12.9124C13.1029 5.93099 13.2638 5.86531 13.3952 5.73394C13.5266 5.60258 13.5922 5.44166 13.5922 5.25119ZM15.3065 3.20193V14.4532C15.3065 14.9852 15.1161 15.4417 14.7351 15.8226C14.3541 16.2036 13.8977 16.394 13.3656 16.394H2.11441C1.58239 16.394 1.1259 16.2036 0.744951 15.8226C0.363999 15.4417 0.173523 14.9852 0.173523 14.4532V3.20193C0.173523 2.66991 0.363999 2.21342 0.744951 1.83247C1.1259 1.45151 1.58239 1.26104 2.11441 1.26104H13.3656C13.8977 1.26104 14.3541 1.45151 14.7351 1.83247C15.1161 2.21342 15.3065 2.66991 15.3065 3.20193Z" fill="#CCCCCC"/>
</g>
<defs>
<clipPath id="clip0_7_889">
<rect width="15.44" height="18" fill="white" transform="matrix(1 0 0 -1 0.0200195 18)"/>
</clipPath>
</defs>
</svg>
