<svg width="141" height="110" viewBox="0 0 141 110" fill="none" xmlns="http://www.w3.org/2000/svg">
<path d="M75.3461 54.8C75.3461 72.3 71.9961 85.75 65.2961 95.15C58.6961 104.45 49.5461 109.1 37.8461 109.1C26.1461 109.1 16.9461 104.45 10.2461 95.15C3.64609 85.75 0.346094 72.3 0.346094 54.8C0.346094 46.1 1.19609 38.4 2.89609 31.7C4.69609 25 7.24609 19.35 10.5461 14.75C13.8461 10.15 17.7961 6.65 22.3961 4.24999C26.9961 1.84999 32.1461 0.649992 37.8461 0.649992C49.5461 0.649992 58.6961 5.34999 65.2961 14.75C71.9961 24.05 75.3461 37.4 75.3461 54.8ZM52.5461 54.8C52.5461 49.6 52.2961 44.9 51.7961 40.7C51.2961 36.4 50.4961 32.7 49.3961 29.6C48.2961 26.5 46.7961 24.1 44.8961 22.4C42.9961 20.7 40.6461 19.85 37.8461 19.85C35.0461 19.85 32.6961 20.7 30.7961 22.4C28.9961 24.1 27.4961 26.5 26.2961 29.6C25.1961 32.7 24.3961 36.4 23.8961 40.7C23.3961 44.9 23.1461 49.6 23.1461 54.8C23.1461 60 23.3961 64.75 23.8961 69.05C24.3961 73.35 25.1961 77.05 26.2961 80.15C27.4961 83.25 28.9961 85.65 30.7961 87.35C32.6961 89.05 35.0461 89.9 37.8461 89.9C40.6461 89.9 42.9961 89.05 44.8961 87.35C46.7961 85.65 48.2961 83.25 49.3961 80.15C50.4961 77.05 51.2961 73.35 51.7961 69.05C52.2961 64.75 52.5461 60 52.5461 54.8ZM91 24.65C93.9 23.45 96.9 22.1 100 20.6C103.2 19 106.3 17.3 109.3 15.5C112.3 13.6 115.15 11.65 117.85 9.64999C120.65 7.55 123.15 5.35 125.35 3.05H140.95V107H118.6V32.15C115.6 34.15 112.25 36 108.55 37.7C104.85 39.3 101.25 40.7 97.75 41.9L91 24.65Z" fill="url(#paint0_linear_7_749)" fill-opacity="0.1"/>
<defs>
<linearGradient id="paint0_linear_7_749" x1="80.5" y1="-35" x2="80.5" y2="129.5" gradientUnits="userSpaceOnUse">
<stop stop-color="#1D1D1D"/>
<stop offset="0.559081" stop-color="#1D1D1D" stop-opacity="0"/>
<stop offset="1" stop-color="#1D1D1D"/>
</linearGradient>
</defs>
</svg>
