<svg width="18" height="18" viewBox="0 0 18 18" fill="none" xmlns="http://www.w3.org/2000/svg">
<g id="Icon" clip-path="url(#clip0_7_886)">
<path id="Vector" d="M15.9901 4.01976C15.55 4.66343 15.018 5.21187 14.394 5.66508C14.4006 5.75703 14.4039 5.89496 14.4039 6.07887C14.4039 6.93273 14.2791 7.78495 14.0295 8.63552C13.7799 9.48609 13.4006 10.3022 12.8916 11.0838C12.3826 11.8654 11.7766 12.5567 11.0738 13.1577C10.3711 13.7587 9.52377 14.2381 8.53198 14.5961C7.54019 14.9541 6.47943 15.1331 5.34971 15.1331C3.56974 15.1331 1.94085 14.6569 0.463013 13.7045C0.692898 13.7308 0.949055 13.7439 1.23149 13.7439C2.70932 13.7439 4.02623 13.2907 5.18222 12.3843C4.49257 12.3712 3.87516 12.1593 3.33001 11.7488C2.78485 11.3383 2.41047 10.8145 2.20686 10.1774C2.4236 10.2102 2.62393 10.2267 2.80784 10.2267C3.09027 10.2267 3.36942 10.1905 3.64528 10.1183C2.90965 9.96721 2.30045 9.60104 1.81769 9.01976C1.33493 8.43848 1.09355 7.7636 1.09355 6.99513V6.95572C1.54019 7.20531 2.01966 7.33995 2.53198 7.35966C2.09848 7.07066 1.75365 6.69299 1.4975 6.22665C1.24134 5.76031 1.11326 5.25457 1.11326 4.70941C1.11326 4.13141 1.25776 3.59611 1.54676 3.1035C2.3415 4.08215 3.30866 4.86541 4.44823 5.45325C5.58781 6.0411 6.80784 6.36787 8.10833 6.43355C8.05579 6.18396 8.02952 5.94094 8.02952 5.70448C8.02952 4.82435 8.33986 4.07394 8.96055 3.45325C9.58124 2.83256 10.3316 2.52222 11.2118 2.52222C12.1313 2.52222 12.9064 2.85719 13.5369 3.52715C14.2528 3.38921 14.9261 3.13306 15.5566 2.75867C15.3136 3.51401 14.8472 4.09857 14.1576 4.51237C14.7684 4.44669 15.3793 4.28248 15.9901 4.01976Z" fill="#CCCCCC"/>
</g>
<defs>
<clipPath id="clip0_7_886">
<rect width="16.72" height="18" fill="white" transform="matrix(1 0 0 -1 0.300049 18)"/>
</clipPath>
</defs>
</svg>
